<svg xmlns="http://www.w3.org/2000/svg" viewBox="0 0 128 128">
  <path fill="#FF694B" d="M64.09 6C37.78 6 15.18 23.28 8.32 47.6c-.4 1.42.67 2.82 2.15 2.82h17.01c.92 0 1.73-.58 2.02-1.46C35.38 31.21 48.64 19.6 64.09 19.6c19.25 0 34.87 15.62 34.87 34.87S83.34 89.34 64.09 89.34c-15.45 0-28.71-11.61-34.59-29.36-.29-.88-1.1-1.46-2.02-1.46H10.47c-1.48 0-2.55 1.4-2.15 2.82C15.18 85.66 37.78 103 64.09 103c26.83 0 48.59-21.76 48.59-48.59S90.92 6 64.09 6z"/>
  <path fill="#FF694B" d="M64.09 38.88c-8.93 0-16.17 7.24-16.17 16.17s7.24 16.17 16.17 16.17 16.17-7.24 16.17-16.17-7.24-16.17-16.17-16.17z"/>
</svg>
